<svg width="157" height="156" viewBox="0 0 157 156" fill="none" xmlns="http://www.w3.org/2000/svg">
<rect width="156" height="156" transform="translate(0.5)" fill="black"/>
<path d="M119.047 43.8748C119.513 44.497 120.937 45.5618 120.66 46.0319C119.407 44.8565 117.872 43.9715 116.074 43.3354C114.203 44.2526 113.193 47.4607 111.76 47.9216C112.198 47.2717 112.783 45.3634 112.571 44.9579C103.205 49.272 110.414 60.177 109.88 69.4928C108.566 70.9262 106.358 71.1382 103.676 70.8433C99.0111 70.327 93.3831 67.2434 88.8482 64.6439C75.8037 57.1677 62.4831 45.5427 46.5171 43.073C37.566 41.6902 28.5321 43.4924 22.7892 46.5807C41.6415 41.1879 58.7002 54.1583 68.0891 63.5662C69.5687 65.0504 71.6843 67.4748 72.136 68.687C72.9749 70.9456 72.325 74.7297 72.9426 76.5042C73.3344 72.3098 75.3026 69.6964 78.3354 68.1477C76.6392 70.4939 74.625 72.5265 74.2931 76.237C74.2147 76.8039 74.0949 79.9935 74.2931 82.169C73.6202 81.8786 72.196 82.5562 71.864 82.4363C68.0476 82.5423 66.6418 82.4962 62.9682 81.897C62.8115 82.3672 63.2908 83.478 62.6962 83.5149C62.6133 82.6069 63.0558 81.178 61.885 81.3578C60.8249 80.9245 61.7928 82.5193 61.0784 82.4364C60.8295 81.5376 61.3227 80.9706 59.728 81.0859C60.8342 83.8515 68.2919 90.7606 66.7386 97.8036C65.9135 101.555 62.0555 101.127 59.9953 99.9607C59.327 102.39 60.2949 103.934 61.8806 104.814C63.3831 105.201 64.4525 104.15 65.1162 104.547C65.8399 108.041 64.1714 110.331 61.6086 109.668C65.4112 114.457 71.8273 109.184 69.4304 102.924C72.9565 98.4766 68.3657 92.0559 67.2733 87.2852C76.1646 86.1652 80.3815 94.176 74.2839 99.4164C76.8835 103.431 80.004 105.892 83.991 109.391C88.6971 113.525 92.7208 117.784 100.437 113.977C101.046 114.447 101.954 114.618 102.594 115.055C102.157 110.446 97.9207 110.829 94.2379 111.281C96.8007 109.778 95.888 106.985 94.7772 104.542C95.5008 102.993 97.7317 103.671 99.0914 104.27C98.3401 99.043 89.6379 98.3286 89.9237 104.27C90.0343 106.482 94.3715 109.976 90.1956 111.281C85.7615 108.34 80.8067 104.496 79.6819 99.1494C88.3473 99.9007 91.832 94.0424 92.6249 87.8244C91.4588 90.7974 86.2872 92.3184 82.3786 90.7882C91.4541 91.4473 95.5057 82.0491 91.2744 75.6882C92.5189 76.67 92.2147 76.481 92.8923 77.578C93.1366 77.1033 93.4961 76.7438 93.9708 76.4995C92.3023 78.8226 95.4734 82.6205 93.6989 86.2065C98.1007 85.8332 102.009 85.3584 104.752 83.5101C106.056 82.6297 106.84 80.4357 108.255 81.081C106.817 81.9706 107.153 83.3488 106.909 86.2018C109.781 87.5615 113.68 87.4647 113.92 90.516C113.998 91.5392 113.025 92.1706 112.841 93.2124C112.588 94.6274 113.579 95.5401 112.841 96.9874C111.292 97.6419 109.403 97.4898 108.255 96.4527C108.702 100.901 113.975 100.878 114.998 96.9874C115.316 100.518 113.044 102.053 110.145 101.574C116.21 105.8 118.524 96.8952 117.695 89.9813C115.141 86.6074 106.549 83.7174 117.695 75.4206C119.506 70.3874 115.141 64.1788 116.883 61.1325C119.69 56.2329 128.761 55.2788 133.062 51.4254C136.224 43.2902 124.627 44.1428 119.05 43.8756L119.047 43.8748ZM116.858 47.6912C115.595 47.6912 114.572 47.1105 114.572 46.3914C114.572 45.6723 115.595 45.0916 116.858 45.0916C118.121 45.0916 119.144 45.6723 119.144 46.3914C119.149 47.1104 118.121 47.6912 116.858 47.6912Z" fill="white"/>
</svg>
