<svg width="24" height="24" viewBox="0 0 24 24" fill="none" xmlns="http://www.w3.org/2000/svg">
<path d="M2.96193 11.1782L22.4736 11.1782C22.887 11.1782 23.2224 11.5136 23.2224 11.927C23.2224 12.3404 22.887 12.6758 22.4736 12.6758L2.96193 12.6758C2.54854 12.6758 2.21313 12.3404 2.21313 11.927C2.21313 11.5136 2.54659 11.1782 2.96193 11.1782Z" fill="#DD2D87"/>
<path d="M8.48967 5.3401C8.71002 5.3401 8.93037 5.43759 9.07663 5.62479C9.33403 5.94849 9.27748 6.42042 8.95378 6.67586L6.62547 8.5186L2.88343 11.857L9.063 17.1959C9.37696 17.467 9.4101 17.9389 9.141 18.2528C8.86995 18.5668 8.3961 18.5999 8.0841 18.3308L1.25906 12.4343C1.09527 12.2939 1.00167 12.0891 0.999715 11.8727C0.997765 11.6562 1.08942 11.4515 1.24931 11.3072L5.66213 7.37211L8.02553 5.50206C8.16203 5.39287 8.32583 5.34022 8.48963 5.34022L8.48967 5.3401Z" fill="#DD2D87"/>
</svg>
